<svg width="48" height="48" viewBox="0 0 48 48" fill="none" xmlns="http://www.w3.org/2000/svg">
<path d="M30.8771 13.0526H35.7776C38.183 13.0526 40.1793 14.8451 40.3507 17.1587L41.9881 39.264C42.1777 41.8232 40.0757 44 37.415 44H10.585C7.92426 44 5.82232 41.8232 6.01189 39.264L7.64929 17.1587C7.82066 14.8451 9.81704 13.0526 12.2224 13.0526H17.1229M30.8771 13.0526H17.1229M30.8771 13.0526V8.63158C30.8771 4.96906 27.7981 2 24 2C20.2019 2 17.1229 4.96906 17.1229 8.63158V13.0526M17.1227 31.8421C17.6958 32.9474 19.8735 35.1579 23.9998 35.1579C28.126 35.1579 30.3038 32.9474 30.8769 31.8421M17.6597 22.4128H18.3045M17.6597 23.0345H18.3045M29.6947 22.4128H30.3394M29.6947 23.0345H30.3394M18.8419 22.7237C18.8419 23.1815 18.4571 23.5526 17.9823 23.5526C17.5075 23.5526 17.1227 23.1815 17.1227 22.7237C17.1227 22.2659 17.5075 21.8947 17.9823 21.8947C18.4571 21.8947 18.8419 22.2659 18.8419 22.7237ZM30.8769 22.7237C30.8769 23.1815 30.492 23.5526 30.0172 23.5526C29.5425 23.5526 29.1576 23.1815 29.1576 22.7237C29.1576 22.2659 29.5425 21.8947 30.0172 21.8947C30.492 21.8947 30.8769 22.2659 30.8769 22.7237Z" stroke="#212121" stroke-width="3" stroke-linecap="round"/>
</svg>
