<svg width="40" height="38" viewBox="0 0 40 38" fill="none" xmlns="http://www.w3.org/2000/svg">
<path d="M8.28627 26.0883V24.4075H25.8864V26.0883H8.28627ZM12.7189 2.82166H14.7179V34.4926H12.7189V2.82166ZM20.5412 17.7282C22.3084 17.7282 23.786 17.4923 24.9739 17.0205C26.1906 16.5486 27.1032 15.8115 27.7117 14.8088C28.32 13.8062 28.6242 12.5087 28.6242 10.9163C28.6242 9.50086 28.3345 8.33605 27.755 7.4219C27.2046 6.47826 26.3644 5.78527 25.2345 5.34295C24.1047 4.87113 22.685 4.63521 20.9757 4.63521H14.0226V2.82166H20.9757C23.0037 2.82166 24.7421 3.11654 26.1906 3.70631C27.6392 4.29609 28.7401 5.18075 29.4934 6.36031C30.2756 7.53986 30.6667 9.04378 30.6667 10.8721C30.6667 12.8773 30.2466 14.5139 29.4064 15.782C28.5953 17.0205 27.4364 17.9347 25.9298 18.5244C24.4234 19.1142 22.6271 19.4091 20.5412 19.4091H8.28627V17.7282H20.5412Z" fill="#212121" stroke="#212121"/>
</svg>
