<svg width="40" height="40" viewBox="0 0 40 40" fill="none" xmlns="http://www.w3.org/2000/svg">
<path d="M13.3333 13.3333V11.6667C13.3333 7.98477 16.3181 5 20 5C23.6819 5 26.6667 7.98477 26.6667 11.6667V13.3333M5 20L18.6462 26.065C19.5081 26.448 20.4919 26.448 21.3538 26.065L35 20M10.3333 35H29.6667C31.5335 35 32.4669 35 33.18 34.6367C33.8072 34.3171 34.3171 33.8072 34.6367 33.18C35 32.4669 35 31.5335 35 29.6667V18.6667C35 16.7998 35 15.8664 34.6367 15.1534C34.3171 14.5262 33.8072 14.0162 33.18 13.6966C32.4669 13.3333 31.5335 13.3333 29.6667 13.3333H10.3333C8.46649 13.3333 7.53307 13.3333 6.82003 13.6966C6.19282 14.0162 5.68289 14.5262 5.36331 15.1534C5 15.8664 5 16.7998 5 18.6667V29.6667C5 31.5335 5 32.4669 5.36331 33.18C5.68289 33.8072 6.19282 34.3171 6.82003 34.6367C7.53307 35 8.46649 35 10.3333 35Z" stroke="#212121" stroke-width="3" stroke-linecap="round"/>
</svg>
