<svg width="40" height="38" viewBox="0 0 40 38" fill="none" xmlns="http://www.w3.org/2000/svg">
<path d="M19.9979 38C10.6625 28.4286 5.99478 20.5131 5.99478 14.2531C5.99478 6.38137 12.2642 0 19.9979 0C27.7316 0 34.0011 6.38137 34.0011 14.2531C34.0011 20.5131 29.3333 28.4286 19.9979 38ZM9.49557 14.2531C9.49557 18.8211 12.9355 25.1107 19.9979 32.8578C27.0604 25.1107 30.5003 18.8211 30.5003 14.2531C30.5003 8.34932 25.7983 3.5633 19.9979 3.5633C14.1976 3.5633 9.49557 8.34932 9.49557 14.2531ZM13.434 14.3466C13.434 10.6567 16.3728 7.66548 19.9979 7.66548C23.6231 7.66548 26.5619 10.6567 26.5619 14.3466C26.5619 18.0366 23.6231 21.0278 19.9979 21.0278C16.3728 21.0278 13.434 18.0366 13.434 14.3466ZM16.7597 14.3466C16.7597 16.167 18.2095 17.6427 19.9979 17.6427C21.7864 17.6427 23.2361 16.167 23.2361 14.3466C23.2361 12.5263 21.7864 11.0506 19.9979 11.0506C18.2095 11.0506 16.7597 12.5263 16.7597 14.3466Z" fill="#212121"/>
</svg>
