<svg width="40" height="38" viewBox="0 0 40 38" fill="none" xmlns="http://www.w3.org/2000/svg">
<g clip-path="url(#clip0_17_63)">
<mask id="mask0_17_63" style="mask-type:luminance" maskUnits="userSpaceOnUse" x="0" y="0" width="40" height="38">
<path d="M40 0H0V38H40V0Z" fill="white"/>
</mask>
<g mask="url(#mask0_17_63)">
<path d="M19.6795 3.84466L20 4.11233L20.3205 3.84466C22.8961 1.69362 25.6455 0.608032 28.5412 0.608032C34.5853 0.608032 39.5 5.59769 39.5 11.7715C39.5 20.319 33.2981 28.4485 20.8235 36.843L19.9997 37.3973L19.176 36.843C6.70176 28.4485 0.5 20.3191 0.5 11.7715C0.5 5.5977 5.41478 0.608032 11.4589 0.608032C14.3545 0.608032 17.1039 1.69362 19.6795 3.84466ZM19.7145 33.814L19.9997 34.0122L20.285 33.814C31.0654 26.3248 36.5 18.9491 36.5 11.7715C36.5 7.31076 32.945 3.67946 28.5412 3.67946C25.9223 3.67946 23.4448 4.8834 21.053 7.29702L20 8.35959L18.947 7.29704C16.5552 4.88341 14.0777 3.67946 11.4589 3.67946C7.05502 3.67946 3.5 7.31077 3.5 11.7715C3.5 18.9493 8.93446 26.3248 19.7145 33.814Z" fill="#212121" stroke="#212121"/>
</g>
</g>
<defs>
<clipPath id="clip0_17_63">
<rect width="40" height="38" fill="white"/>
</clipPath>
</defs>
</svg>
