<svg width="40" height="38" viewBox="0 0 40 38" fill="none" xmlns="http://www.w3.org/2000/svg">
<g clip-path="url(#clip0_17_53)">
<mask id="mask0_17_53" style="mask-type:luminance" maskUnits="userSpaceOnUse" x="0" y="0" width="40" height="38">
<path d="M40 0H0V38H40V0Z" fill="white"/>
</mask>
<g mask="url(#mask0_17_53)">
<path d="M7.46772 3.35651C6.88799 3.11208 6.24954 3.048 5.63351 3.17272C5.01755 3.29744 4.45296 3.60503 4.01069 4.0552C3.5685 4.50529 3.26835 5.07765 3.14683 5.69948C3.02532 6.32127 3.08761 6.96585 3.32617 7.55208L3.32617 7.55208C3.56478 8.13841 3.96941 8.64095 4.49026 8.9952L4.49027 8.9952C5.01124 9.34951 5.62468 9.5392 6.25297 9.5392L6.25352 9.5392C7.09583 9.53828 7.90156 9.19722 8.49443 8.59377C9.087 7.99062 9.41876 7.17468 9.41964 6.32543V6.32491C9.41964 5.69113 9.23504 5.07088 8.88821 4.54255C8.54132 4.01411 8.04735 3.60088 7.46772 3.35651ZM7.46772 3.35651L7.27347 3.81724L7.46772 3.35651ZM12.9179 30.3557H33.746V32.9748H12.9217C10.9563 32.9442 9.07967 32.1284 7.69724 30.7005C6.31368 29.2714 5.53652 27.3437 5.53632 25.3337C5.53612 23.3235 6.3129 21.3957 7.69619 19.9664L7.6962 19.9664C9.07834 18.5381 10.9548 17.722 12.9202 17.6909L25.366 17.6873L25.366 17.6875L25.3762 17.6872C26.6729 17.6605 27.9059 17.1174 28.8109 16.1772C29.7156 15.2374 30.2208 13.9757 30.2205 12.6634C30.2202 11.3512 29.7147 10.0897 28.8095 9.15019C27.9041 8.21039 26.6709 7.66772 25.3742 7.64159L25.3742 7.64149H25.3641H12.1829H11.8088L11.7033 8.00037C11.3078 9.34443 10.451 10.4966 9.29171 11.2477C8.13268 11.9987 6.74804 12.2994 5.39059 12.0961C4.03303 11.8928 2.79086 11.1987 1.89212 10.1382C0.993204 9.07743 0.498349 7.72133 0.500004 6.31767C0.501659 4.91401 0.999708 3.55914 1.90111 2.50063C2.80234 1.44233 4.04614 0.751246 5.40415 0.55127C6.76208 0.351307 8.14602 0.655328 9.30328 1.40915C10.4608 2.16313 11.3149 3.31739 11.7072 4.66242L11.8122 5.02244H12.1872H25.3603C27.3256 5.05303 29.2023 5.86881 30.5848 7.29676C31.9683 8.7259 32.7455 10.6535 32.7457 12.6636C32.746 14.6736 31.9692 16.6014 30.5859 18.0308L30.5859 18.0308C29.2037 19.4591 27.3272 20.2754 25.3619 20.3063L12.9161 20.31V20.3099L12.906 20.3101C11.6092 20.3367 10.3763 20.8798 9.47121 21.8199L9.47119 21.82C8.56645 22.7599 8.06127 24.0215 8.06151 25.3338C8.06173 26.646 8.56737 27.9074 9.47245 28.847C10.3778 29.7868 11.611 30.3295 12.9078 30.3556L12.9078 30.3557H12.9179Z" fill="#212121" stroke="#212121"/>
<path d="M32 29.8554H33.7671V33.4745H32V37.9965L39.9987 31.6631L32 25.3298V29.8554Z" fill="#212121"/>
</g>
</g>
<defs>
<clipPath id="clip0_17_53">
<rect width="40" height="38" fill="white"/>
</clipPath>
</defs>
</svg>
