<svg width="106" height="47" viewBox="0 0 106 47" fill="none" xmlns="http://www.w3.org/2000/svg">
<path d="M6.00988 19.1759C6.77514 20.3369 8.48788 21.1983 9.98196 21.1983C12.6786 21.1983 14.4642 19.1009 14.4642 15.9549C14.4642 12.8089 12.6786 10.6741 9.98196 10.6741C8.48788 10.6741 6.77514 11.5729 6.00988 12.7714V19.1759ZM6.00988 24.981H1.38185V0H6.00988V9.2134C7.39464 7.37821 9.36246 6.44189 11.4396 6.44189C15.9219 6.44189 19.238 10.0374 19.238 15.9549C19.238 21.9848 15.8854 25.4305 11.4396 25.4305C9.32602 25.4305 7.39464 24.4567 6.00988 22.659V24.981Z" fill="#071F50"/>
<path d="M30.3503 25.4305C24.5561 25.4305 21.0578 21.0859 21.0578 15.9175C21.0578 10.7864 24.5561 6.44189 30.3503 6.44189C36.1809 6.44189 39.6792 10.7864 39.6792 15.9175C39.6792 21.0859 36.1809 25.4305 30.3503 25.4305ZM30.3503 21.1983C33.2291 21.1983 34.869 18.7639 34.869 15.9175C34.869 13.1085 33.2291 10.6741 30.3503 10.6741C27.4714 10.6741 25.868 13.1085 25.868 15.9175C25.868 18.7639 27.4714 21.1983 30.3503 21.1983Z" fill="#071F50"/>
<path d="M47.194 24.981H42.566V0H47.194V24.981Z" fill="#071F50"/>
<path d="M57.5772 25.4305C54.5162 25.4305 51.5644 24.3818 49.7059 22.6215L51.7102 19.2882C52.9856 20.5242 55.6094 21.7601 57.7959 21.7601C59.8001 21.7601 60.7476 20.9361 60.7476 19.8126C60.7476 16.8163 50.289 19.2508 50.289 12.1347C50.289 9.10104 52.8763 6.44189 57.5043 6.44189C60.4925 6.44189 62.8612 7.49057 64.6104 8.91378L62.7519 12.1722C61.6951 11.0111 59.6908 10.0748 57.5408 10.0748C55.8645 10.0748 54.7712 10.8613 54.7712 11.8725C54.7712 14.5692 65.1934 12.322 65.1934 19.6253C65.1934 22.9211 62.4603 25.4305 57.5772 25.4305Z" fill="#071F50"/>
<path d="M76.3285 25.4305C70.9716 25.4305 66.9266 21.7226 66.9266 15.9175C66.9266 10.6741 70.6801 6.44189 76.0369 6.44189C81.2844 6.44189 84.8557 10.4868 84.8557 16.4043V17.453H71.7733C72.0648 19.7376 73.8505 21.6477 76.8386 21.6477C78.3327 21.6477 80.4099 20.9736 81.5395 19.85L83.5802 22.9211C81.8311 24.5691 79.0615 25.4305 76.3285 25.4305ZM80.3734 14.2321C80.2641 12.5092 79.098 10.2246 76.0369 10.2246C73.1581 10.2246 71.9191 12.4343 71.7004 14.2321H80.3734Z" fill="#071F50"/>
<path d="M95.8148 25.4305C90.0206 25.4305 86.5223 21.0859 86.5223 15.9175C86.5223 10.7864 90.0206 6.44189 95.8148 6.44189C101.645 6.44189 105.144 10.7864 105.144 15.9175C105.144 21.0859 101.645 25.4305 95.8148 25.4305ZM95.8148 21.1983C98.6936 21.1983 100.333 18.7639 100.333 15.9175C100.333 13.1085 98.6936 10.6741 95.8148 10.6741C92.9359 10.6741 91.3325 13.1085 91.3325 15.9175C91.3325 18.7639 92.9359 21.1983 95.8148 21.1983Z" fill="#071F50"/>
<path d="M9.31314 43.3954H7.91016V39.0695C7.91016 38.2731 7.5583 37.8748 6.85458 37.8748C6.56062 37.8748 6.27557 37.9618 5.99943 38.1357C5.72328 38.3097 5.50949 38.5157 5.35806 38.7537V43.3954H3.95508V39.0695C3.95508 38.2731 3.59876 37.8748 2.88614 37.8748C2.60109 37.8748 2.32049 37.9618 2.04435 38.1357C1.77711 38.3097 1.56332 38.5202 1.40298 38.7674V43.3954H0V36.7625H1.40298V37.6688C1.56332 37.4216 1.83947 37.1836 2.23141 36.9547C2.63226 36.7167 3.05539 36.5977 3.50078 36.5977C4.4361 36.5977 5.02402 37.0051 5.26453 37.8199C5.46941 37.4903 5.77228 37.2065 6.17313 36.9684C6.57398 36.7213 7.00156 36.5977 7.45586 36.5977C8.69404 36.5977 9.31314 37.266 9.31314 38.6026V43.3954Z" fill="#FF4615"/>
<path d="M16.4751 43.3954H15.0722V42.6813C14.5733 43.2672 13.8785 43.5601 12.9877 43.5601C12.3998 43.5601 11.8787 43.3679 11.4244 42.9834C10.9701 42.5897 10.7429 42.0495 10.7429 41.3629C10.7429 40.658 10.9656 40.1224 11.411 39.7562C11.8653 39.39 12.3909 39.2069 12.9877 39.2069C13.9052 39.2069 14.6 39.4907 15.0722 40.0583V39.0695C15.0722 38.685 14.9341 38.3829 14.6579 38.1632C14.3818 37.9435 14.0166 37.8336 13.5623 37.8336C12.8407 37.8336 12.2038 38.1128 11.6515 38.6713L11.077 37.6688C11.8074 36.9547 12.7116 36.5977 13.7894 36.5977C14.5822 36.5977 15.228 36.7899 15.7269 37.1744C16.2257 37.559 16.4751 38.1678 16.4751 39.0009V43.3954ZM13.5356 42.5714C14.2393 42.5714 14.7515 42.3425 15.0722 41.8848V40.8823C14.7515 40.4245 14.2393 40.1956 13.5356 40.1956C13.1347 40.1956 12.8051 40.3055 12.5468 40.5252C12.2885 40.7449 12.1593 41.0333 12.1593 41.3904C12.1593 41.7474 12.2885 42.0358 12.5468 42.2555C12.8051 42.4661 13.1347 42.5714 13.5356 42.5714Z" fill="#FF4615"/>
<path d="M19.6971 43.3954H18.2941V36.7625H19.6971V37.7375C19.9465 37.4079 20.2583 37.1378 20.6324 36.9272C21.0065 36.7167 21.394 36.6114 21.7949 36.6114V38.0396C21.6702 38.0121 21.5232 37.9984 21.354 37.9984C21.06 37.9984 20.7438 38.0899 20.4053 38.2731C20.0757 38.447 19.8396 38.6484 19.6971 38.8773V43.3954Z" fill="#FF4615"/>
<path d="M28.9659 43.3954H27.2021L25.2246 40.6625L24.3293 41.6101V43.3954H22.9264V34.2356H24.3293V39.9622L27.1754 36.7625H28.9124L26.2267 39.7699L28.9659 43.3954Z" fill="#FF4615"/>
<path d="M32.874 43.5601C31.8941 43.5601 31.0835 43.2397 30.4421 42.5989C29.8097 41.9488 29.4934 41.1066 29.4934 40.072C29.4934 39.1016 29.8008 38.2822 30.4154 37.6139C31.039 36.9364 31.8228 36.5977 32.7671 36.5977C33.7202 36.5977 34.4863 36.9364 35.0653 37.6139C35.6532 38.2914 35.9472 39.1565 35.9472 40.2094V40.5527H30.9632C31.0167 41.0745 31.226 41.5094 31.5912 41.8573C31.9565 42.2052 32.433 42.3791 33.021 42.3791C33.3505 42.3791 33.6801 42.315 34.0097 42.1869C34.3482 42.0587 34.6288 41.8802 34.8515 41.6513L35.4929 42.5989C34.8426 43.2397 33.9696 43.5601 32.874 43.5601ZM34.5843 39.5365C34.5665 39.0787 34.4017 38.6713 34.0899 38.3143C33.787 37.9572 33.3461 37.7787 32.7671 37.7787C32.2148 37.7787 31.7828 37.9572 31.471 38.3143C31.1592 38.6621 30.9855 39.0695 30.9499 39.5365H34.5843Z" fill="#FF4615"/>
<path d="M39.2694 43.5601C38.7261 43.5601 38.3119 43.4137 38.0268 43.1207C37.7507 42.8277 37.6126 42.4066 37.6126 41.8573V38.0259H36.5437V36.7625H37.6126V34.9497H39.0156V36.7625H40.325V38.0259H39.0156V41.5002C39.0156 41.7383 39.069 41.9305 39.1759 42.077C39.2828 42.2143 39.4342 42.283 39.6302 42.283C39.9153 42.283 40.1246 42.2052 40.2582 42.0495L40.5923 43.1344C40.2983 43.4182 39.8574 43.5601 39.2694 43.5601Z" fill="#FF4615"/>
<path d="M42.2937 35.9522C42.0621 35.9522 41.8572 35.8653 41.679 35.6913C41.5098 35.5174 41.4252 35.3068 41.4252 35.0596C41.4252 34.8124 41.5098 34.6018 41.679 34.4279C41.8572 34.2539 42.0621 34.167 42.2937 34.167C42.5342 34.167 42.7391 34.2539 42.9083 34.4279C43.0776 34.6018 43.1622 34.8124 43.1622 35.0596C43.1622 35.3068 43.0776 35.5174 42.9083 35.6913C42.7391 35.8653 42.5342 35.9522 42.2937 35.9522ZM43.0019 43.3954H41.5989V36.7625H43.0019V43.3954Z" fill="#FF4615"/>
<path d="M50.5808 43.3954H49.1778V39.2481C49.1778 38.3326 48.7458 37.8748 47.8817 37.8748C47.5432 37.8748 47.227 37.9618 46.933 38.1357C46.6391 38.3097 46.403 38.5202 46.2249 38.7674V43.3954H44.8219V36.7625H46.2249V37.6688C46.4654 37.3758 46.7861 37.1241 47.1869 36.9135C47.5878 36.7029 48.0242 36.5977 48.4964 36.5977C49.1823 36.5977 49.6989 36.7808 50.0463 37.147C50.4026 37.5132 50.5808 38.0396 50.5808 38.7262V43.3954Z" fill="#FF4615"/>
<path d="M55.022 46.087C53.9263 46.087 53.0267 45.7574 52.3229 45.0982L52.9777 44.0545C53.4587 44.6221 54.1401 44.9059 55.022 44.9059C55.5565 44.9059 56.0063 44.7595 56.3715 44.4665C56.7457 44.1827 56.9327 43.7295 56.9327 43.107V42.3105C56.3805 43.0429 55.6901 43.4091 54.8617 43.4091C54.0154 43.4091 53.3251 43.107 52.7906 42.5027C52.265 41.8985 52.0023 41.0654 52.0023 40.0034C52.0023 38.9505 52.265 38.122 52.7906 37.5178C53.3251 36.9044 54.0154 36.5977 54.8617 36.5977C55.7079 36.5977 56.3983 36.9593 56.9327 37.6825V36.7625H58.3357V43.052C58.3357 43.6197 58.2377 44.1095 58.0418 44.5214C57.8547 44.9426 57.5964 45.2584 57.2668 45.469C56.9372 45.6887 56.5853 45.8444 56.2112 45.9359C55.846 46.0366 55.4496 46.087 55.022 46.087ZM55.2759 42.1319C55.5966 42.1319 55.9128 42.045 56.2246 41.871C56.5363 41.6971 56.7724 41.4865 56.9327 41.2393V38.7674C56.7724 38.5202 56.5363 38.3097 56.2246 38.1357C55.9128 37.9618 55.5966 37.8748 55.2759 37.8748C54.7236 37.8748 54.2827 38.0716 53.9531 38.4653C53.6235 38.8498 53.4587 39.3625 53.4587 40.0034C53.4587 40.6442 53.6235 41.1615 53.9531 41.5552C54.2827 41.9397 54.7236 42.1319 55.2759 42.1319Z" fill="#FF4615"/>
<path d="M68.9304 43.3954H67.5275V42.6813C67.0286 43.2672 66.3338 43.5601 65.443 43.5601C64.8551 43.5601 64.334 43.3679 63.8797 42.9834C63.4254 42.5897 63.1983 42.0495 63.1983 41.3629C63.1983 40.658 63.4209 40.1224 63.8663 39.7562C64.3206 39.39 64.8462 39.2069 65.443 39.2069C66.3605 39.2069 67.0553 39.4907 67.5275 40.0583V39.0695C67.5275 38.685 67.3894 38.3829 67.1132 38.1632C66.8371 37.9435 66.4719 37.8336 66.0176 37.8336C65.296 37.8336 64.6591 38.1128 64.1069 38.6713L63.5323 37.6688C64.2627 36.9547 65.1669 36.5977 66.2447 36.5977C67.0375 36.5977 67.6833 36.7899 68.1822 37.1744C68.681 37.559 68.9304 38.1678 68.9304 39.0009V43.3954ZM65.9909 42.5714C66.6946 42.5714 67.2068 42.3425 67.5275 41.8848V40.8823C67.2068 40.4245 66.6946 40.1956 65.9909 40.1956C65.59 40.1956 65.2604 40.3055 65.0021 40.5252C64.7438 40.7449 64.6146 41.0333 64.6146 41.3904C64.6146 41.7474 64.7438 42.0358 65.0021 42.2555C65.2604 42.4661 65.59 42.5714 65.9909 42.5714Z" fill="#FF4615"/>
<path d="M73.3683 46.087C72.2727 46.087 71.373 45.7574 70.6692 45.0982L71.324 44.0545C71.805 44.6221 72.4864 44.9059 73.3683 44.9059C73.9028 44.9059 74.3526 44.7595 74.7179 44.4665C75.092 44.1827 75.279 43.7295 75.279 43.107V42.3105C74.7268 43.0429 74.0364 43.4091 73.208 43.4091C72.3617 43.4091 71.6714 43.107 71.1369 42.5027C70.6113 41.8985 70.3486 41.0654 70.3486 40.0034C70.3486 38.9505 70.6113 38.122 71.1369 37.5178C71.6714 36.9044 72.3617 36.5977 73.208 36.5977C74.0542 36.5977 74.7446 36.9593 75.279 37.6825V36.7625H76.682V43.052C76.682 43.6197 76.584 44.1095 76.3881 44.5214C76.201 44.9426 75.9427 45.2584 75.6131 45.469C75.2835 45.6887 74.9316 45.8444 74.5575 45.9359C74.1923 46.0366 73.7959 46.087 73.3683 46.087ZM73.6222 42.1319C73.9429 42.1319 74.2591 42.045 74.5709 41.871C74.8826 41.6971 75.1187 41.4865 75.279 41.2393V38.7674C75.1187 38.5202 74.8826 38.3097 74.5709 38.1357C74.2591 37.9618 73.9429 37.8748 73.6222 37.8748C73.0699 37.8748 72.629 38.0716 72.2994 38.4653C71.9698 38.8498 71.805 39.3625 71.805 40.0034C71.805 40.6442 71.9698 41.1615 72.2994 41.5552C72.629 41.9397 73.0699 42.1319 73.6222 42.1319Z" fill="#FF4615"/>
<path d="M81.4799 43.5601C80.5001 43.5601 79.6895 43.2397 79.0481 42.5989C78.4156 41.9488 78.0994 41.1066 78.0994 40.072C78.0994 39.1016 78.4067 38.2822 79.0214 37.6139C79.6449 36.9364 80.4288 36.5977 81.373 36.5977C82.3262 36.5977 83.0923 36.9364 83.6713 37.6139C84.2592 38.2914 84.5531 39.1565 84.5531 40.2094V40.5527H79.5692C79.6227 41.0745 79.832 41.5094 80.1972 41.8573C80.5624 42.2052 81.039 42.3791 81.6269 42.3791C81.9565 42.3791 82.2861 42.315 82.6157 42.1869C82.9542 42.0587 83.2348 41.8802 83.4575 41.6513L84.0988 42.5989C83.4486 43.2397 82.5756 43.5601 81.4799 43.5601ZM83.1902 39.5365C83.1724 39.0787 83.0076 38.6713 82.6959 38.3143C82.393 37.9572 81.9521 37.7787 81.373 37.7787C80.8208 37.7787 80.3887 37.9572 80.077 38.3143C79.7652 38.6621 79.5915 39.0695 79.5558 39.5365H83.1902Z" fill="#FF4615"/>
<path d="M91.6969 43.3954H90.2939V39.2481C90.2939 38.3326 89.8619 37.8748 88.9978 37.8748C88.6593 37.8748 88.3431 37.9618 88.0491 38.1357C87.7552 38.3097 87.5191 38.5202 87.3409 38.7674V43.3954H85.938V36.7625H87.3409V37.6688C87.5815 37.3758 87.9021 37.1241 88.303 36.9135C88.7038 36.7029 89.1403 36.5977 89.6124 36.5977C90.2983 36.5977 90.815 36.7808 91.1624 37.147C91.5187 37.5132 91.6969 38.0396 91.6969 38.7262V43.3954Z" fill="#FF4615"/>
<path d="M96.4588 43.5601C95.4789 43.5601 94.6772 43.2351 94.0537 42.5851C93.4301 41.926 93.1183 41.0883 93.1183 40.072C93.1183 39.065 93.4301 38.2364 94.0537 37.5864C94.6772 36.9272 95.4789 36.5977 96.4588 36.5977C97.5366 36.5977 98.3606 36.9913 98.9307 37.7787L98.0087 38.6576C97.6524 38.1357 97.158 37.8748 96.5256 37.8748C95.9377 37.8748 95.4655 38.0808 95.1092 38.4928C94.7529 38.8956 94.5748 39.422 94.5748 40.072C94.5748 40.7221 94.7529 41.253 95.1092 41.665C95.4655 42.077 95.9377 42.283 96.5256 42.283C97.1402 42.283 97.6346 42.0221 98.0087 41.5002L98.9307 42.3791C98.3606 43.1665 97.5366 43.5601 96.4588 43.5601Z" fill="#FF4615"/>
<path d="M99.8803 45.9908L100.094 44.7C100.254 44.7732 100.433 44.8098 100.629 44.8098C101.083 44.8098 101.39 44.6176 101.551 44.233L101.871 43.4777L99.2256 36.7625H100.722L102.606 41.7337L104.49 36.7625H106L102.887 44.5901C102.504 45.5697 101.764 46.0686 100.669 46.087C100.375 46.087 100.112 46.0549 99.8803 45.9908Z" fill="#FF4615"/>
</svg>
