<svg width="49" height="49" viewBox="0 0 49 49" fill="none" xmlns="http://www.w3.org/2000/svg">
<path d="M24 25L30 19M46 25C46 37.1503 36.1503 47 24 47C11.8497 47 2 37.1503 2 25C2 12.8498 11.8497 3.00003 24 3.00003M38 25C38 32.732 31.732 39 24 39C16.268 39 10 32.732 10 25C10 17.268 16.268 11 24 11M30 18V9.23917C30 8.96997 30.1085 8.71214 30.3011 8.52398L36.3011 2.66035C36.9343 2.04153 38 2.49016 38 3.37553V10C38 10.5523 38.4477 11 39 11H45.6245C46.5099 11 46.9585 12.0658 46.3397 12.699L40.476 18.699C40.2879 18.8915 40.0301 19 39.7609 19H31C30.4477 19 30 18.5523 30 18Z" stroke="#212121" stroke-width="3" stroke-linecap="round"/>
</svg>
