<svg width="270" height="277" viewBox="0 0 270 277" fill="none" xmlns="http://www.w3.org/2000/svg">
<path d="M172.653 2.31716C176.412 -1.7081 183.154 1.03364 183.037 6.53983L181.124 96.4892C181.073 98.8652 182.43 101.047 184.583 102.053L266.097 140.133C271.086 142.464 270.562 149.723 265.289 151.313L179.151 177.289C176.876 177.975 175.22 179.94 174.929 182.298L163.902 271.59C163.227 277.056 156.161 278.8 153.019 274.277L101.696 200.382C100.341 198.43 97.9606 197.462 95.6275 197.914L7.29879 215.019C1.89181 216.066 -1.95116 209.885 1.38007 205.499L55.7991 133.854C57.2365 131.961 57.4216 129.399 56.2709 127.319L12.7076 48.5996C10.0409 43.7808 14.7319 38.2159 19.9324 40.0288L104.888 69.6446C107.132 70.4269 109.626 69.811 111.248 68.074L172.653 2.31716Z" fill="#FDEF7D"/>
</svg>
