<svg width="30" height="28" viewBox="0 0 30 28" fill="none" xmlns="http://www.w3.org/2000/svg">
<g clip-path="url(#clip0_61_2378)">
<mask id="mask0_61_2378" style="mask-type:luminance" maskUnits="userSpaceOnUse" x="0" y="0" width="30" height="28">
<path d="M30 0H0V28H30V0Z" fill="white"/>
</mask>
<g mask="url(#mask0_61_2378)">
<path d="M15.0801 15.3134C15.6928 15.319 16.3039 15.2496 16.8997 15.1068C17.4112 14.9879 17.8947 14.7708 18.3234 14.4675C18.7202 14.1774 19.0391 13.7936 19.2514 13.3502C19.4863 12.8303 19.6001 12.2639 19.5842 11.6937C19.5967 11.1334 19.4893 10.577 19.269 10.0618C19.0683 9.61188 18.7627 9.21669 18.3778 8.90934C17.9663 8.59011 17.4945 8.35726 16.9909 8.22475C16.4031 8.06932 15.797 7.99386 15.189 8.00039H11.5853V13.837H10V15.3134H11.5853V16.5933H10V18.0698H11.5853V20.9171H13.7294V18.0698H17.584V16.5933H13.7294V15.3134H15.0801ZM13.7294 9.76558H15.189C15.7894 9.71995 16.3873 9.88197 16.8825 10.2245C17.082 10.414 17.2359 10.6462 17.3326 10.9037C17.4294 11.1612 17.4664 11.4373 17.441 11.7112C17.465 12.0071 17.4224 12.3046 17.3164 12.5819C17.2103 12.8592 17.0436 13.1093 16.8283 13.3137C16.3338 13.6905 15.7201 13.8764 15.0996 13.837H13.7294V9.76558Z" fill="#212121"/>
<path d="M4.83579 24.8704L2.58144 27.125H9.03978V20.6667L6.66027 23.0459C4.85232 21.5027 3.56103 19.4422 2.96047 17.1423C2.35991 14.8424 2.47898 12.4137 3.30162 10.1836C4.12425 7.95343 5.6109 6.02915 7.56113 4.67017C9.51135 3.31118 11.8314 2.58284 14.2084 2.58334V4.58946e-06C11.3204 -0.00231699 8.50036 0.876192 6.12464 2.51829C3.74892 4.1604 1.93051 6.48799 0.912065 9.19045C-0.106378 11.8929 -0.27641 14.8417 0.424662 17.6433C1.12573 20.4449 2.66456 22.9661 4.83579 24.8704Z" fill="#212121"/>
<path d="M25.2305 3.24704L27.4545 1H21.0909V7.42857L23.4252 5.07057C25.2097 6.60335 26.4853 8.65263 27.0797 10.9414C27.6741 13.2302 27.5586 15.6482 26.7487 17.8685C25.9389 20.0889 24.4738 22.0045 22.5515 23.3566C20.6292 24.7086 18.3423 25.4319 16 25.4286V28C18.8458 28.0033 21.6248 27.1294 23.966 25.495C26.3072 23.8606 28.099 21.5436 29.1022 18.8533C30.1055 16.163 30.2723 13.2276 29.5805 10.439C28.8887 7.65038 27.3711 5.14137 25.2305 3.24704Z" fill="#212121"/>
</g>
</g>
<defs>
<clipPath id="clip0_61_2378">
<rect width="30" height="28" fill="white"/>
</clipPath>
</defs>
</svg>
