<svg width="40" height="38" viewBox="0 0 40 38" fill="none" xmlns="http://www.w3.org/2000/svg">
<g clip-path="url(#clip0_17_89)">
<mask id="mask0_17_89" style="mask-type:luminance" maskUnits="userSpaceOnUse" x="0" y="0" width="40" height="38">
<path d="M40 0H0V38H40V0Z" fill="white"/>
</mask>
<g mask="url(#mask0_17_89)">
<path d="M17.8058 12.7533H18.3058H20.2333C21.1438 12.6875 22.0485 12.9398 22.7978 13.4673L22.8296 13.4897L22.8575 13.5167C23.1778 13.8264 23.4244 14.2053 23.5791 14.6247L17.8058 12.7533ZM17.8058 12.7533V13.2533M17.8058 12.7533V13.2533M17.8058 13.2533V18.7788V19.2788H18.3058H20.1172C21.0616 19.3358 21.9936 19.0459 22.7441 18.4637L22.7656 18.4471L22.7852 18.4282C23.126 18.0988 23.3892 17.6965 23.5565 17.2514L23.5566 17.2513M17.8058 13.2533L23.5566 17.2513M23.5566 17.2513C23.7188 16.8193 23.7868 16.3571 23.7562 15.8965M23.5566 17.2513L23.7562 15.8965M23.7562 15.8965C23.7893 15.465 23.7292 15.0309 23.5792 14.6248L23.7562 15.8965ZM20.1114 20.2825V20.2825H20.1068H18.3058H17.8058V20.7825V22.5195V23.0195H18.3058H22.9453V24.0233H18.3058H17.8058V24.5233V27.8875H15.947V24.5233V24.0233H15.447H13.8333V23.0195H15.447H15.947V22.5195V20.7825V20.2825H15.447H13.8333V19.2788H15.447H15.947V18.7788V11.3577H20.252V11.3577L20.2574 11.3577C21.0224 11.3493 21.7849 11.4459 22.5246 11.645L22.5252 11.6452C23.1294 11.807 23.6962 12.0913 24.1911 12.4815C24.6397 12.8469 24.997 13.3167 25.2325 13.8525C25.4979 14.4858 25.6275 15.1699 25.6124 15.8591L25.6121 15.8714L25.6124 15.8837C25.6315 16.5815 25.4951 17.2743 25.2137 17.9103C24.966 18.4348 24.5954 18.8882 24.1358 19.2311C23.6179 19.6034 23.0344 19.8697 22.4178 20.0156L22.4178 20.0155L22.4144 20.0164C21.6603 20.2003 20.8868 20.2897 20.1114 20.2825Z" fill="#212121" stroke="#212121"/>
<path d="M6.44772 33.7527L3.44192 36.8125H12.053V28.0477L8.88036 31.2766C6.46976 29.1822 4.74804 26.3858 3.94729 23.2645C3.14655 20.1433 3.30531 16.8472 4.40216 13.8206C5.499 10.7939 7.4812 8.18242 10.0815 6.33809C12.6818 4.49374 15.7752 3.50528 18.9445 3.50596V6.22855e-06C15.0939 -0.00314449 11.3338 1.18912 8.16619 3.41768C4.99856 5.64626 2.57401 8.80513 1.21609 12.4728C-0.141837 16.1404 -0.368547 20.1423 0.566216 23.9445C1.50097 27.7466 3.55275 31.1683 6.44772 33.7527Z" fill="#212121"/>
<path d="M33.6406 4.40673L36.606 1.35718H28.1212V10.0817L31.2336 6.88152C33.6129 8.96172 35.3137 11.7429 36.1062 14.8491C36.8988 17.9553 36.7448 21.2369 35.6649 24.2501C34.5852 27.2635 32.6317 29.8633 30.0686 31.6983C27.5056 33.5331 24.4564 34.5148 21.3333 34.5103V38C25.1277 38.0045 28.833 36.8185 31.9546 34.6004C35.0762 32.3823 37.4653 29.2378 38.8029 25.5867C40.1406 21.9355 40.363 17.9518 39.4406 14.1672C38.5182 10.3827 36.4948 6.97761 33.6406 4.40673Z" fill="#212121"/>
</g>
</g>
<defs>
<clipPath id="clip0_17_89">
<rect width="40" height="38" fill="white"/>
</clipPath>
</defs>
</svg>
