<svg width="40" height="40" viewBox="0 0 40 40" fill="none" xmlns="http://www.w3.org/2000/svg">
<g clip-path="url(#clip0_28_1844)">
<mask id="mask0_28_1844" style="mask-type:luminance" maskUnits="userSpaceOnUse" x="0" y="0" width="40" height="40">
<path d="M0 0H40V40H0V0Z" fill="white"/>
</mask>
<g mask="url(#mask0_28_1844)">
<path d="M18.8182 1.12924C19.1518 0.261852 20.379 0.261851 20.7127 1.12924C21.0123 1.9083 22.072 2.01266 22.5179 1.30704C23.0143 0.521409 24.218 0.760822 24.376 1.67664C24.5179 2.49919 25.5368 2.80827 26.1118 2.2032C26.752 1.52952 27.8858 1.99914 27.8621 2.92819C27.8408 3.76263 28.7799 4.26455 29.4618 3.78328C30.2212 3.24744 31.2415 3.92923 31.0371 4.83579C30.8534 5.65006 31.6765 6.32552 32.4392 5.98655C33.2885 5.60912 34.1563 6.4769 33.7788 7.32615C33.4399 8.08895 34.1154 8.91201 34.9296 8.72837C35.8362 8.52388 36.518 9.54428 35.9821 10.3036C35.5009 10.9856 36.0028 11.9246 36.8372 11.9033C37.7663 11.8797 38.2359 13.0134 37.5622 13.6536C36.9572 14.2286 37.2662 15.2475 38.0888 15.3895C39.0046 15.5475 39.244 16.7511 38.4584 17.2476C37.7528 17.6934 37.8571 18.7531 38.6362 19.0528C39.5036 19.3864 39.5036 20.6136 38.6362 20.9473C37.8571 21.2469 37.7528 22.3066 38.4584 22.7525C39.244 23.2489 39.0046 24.4525 38.0888 24.6105C37.2662 24.7525 36.9572 25.7714 37.5622 26.3464C38.2359 26.9866 37.7663 28.1204 36.8372 28.0967C36.0028 28.0754 35.5009 29.0145 35.9821 29.6965C36.518 30.4557 35.8362 31.4761 34.9296 31.2717C34.1154 31.088 33.4399 31.9111 33.7788 32.6739C34.1563 33.5231 33.2885 34.3909 32.4392 34.0135C31.6765 33.6745 30.8534 34.35 31.0371 35.1642C31.2415 36.0708 30.2212 36.7526 29.4618 36.2168C28.7799 35.7355 27.8408 36.2374 27.8621 37.0718C27.8858 38.0009 26.752 38.4705 26.1118 37.7968C25.5368 37.1917 24.5179 37.5009 24.376 38.3234C24.218 39.2392 23.0143 39.4786 22.5179 38.693C22.072 37.9873 21.0123 38.0917 20.7127 38.8708C20.379 39.7382 19.1518 39.7382 18.8182 38.8708C18.5185 38.0917 17.4588 37.9873 17.0129 38.693C16.5165 39.4786 15.3129 39.2392 15.1548 38.3234C15.0129 37.5009 13.994 37.1917 13.419 37.7968C12.7788 38.4705 11.6451 38.0009 11.6688 37.0718C11.69 36.2374 10.751 35.7355 10.069 36.2168C9.30964 36.7526 8.28929 36.0708 8.49378 35.1642C8.67742 34.35 7.85436 33.6745 7.09156 34.0135C6.24231 34.3909 5.37453 33.5231 5.75196 32.6739C6.09093 31.9111 5.41547 31.088 4.6012 31.2717C3.69462 31.4761 3.01283 30.4557 3.54867 29.6965C4.02995 29.0145 3.52802 28.0754 2.69358 28.0967C1.76454 28.1204 1.29491 26.9866 1.96859 26.3464C2.57367 25.7714 2.26458 24.7525 1.44203 24.6105C0.526217 24.4525 0.286802 23.2489 1.07243 22.7525C1.77806 22.3066 1.67369 21.2469 0.894635 20.9473C0.0272456 20.6136 0.0272455 19.3864 0.894635 19.0528C1.67369 18.7531 1.77806 17.6934 1.07244 17.2476C0.286802 16.7511 0.526217 15.5475 1.44203 15.3895C2.26458 15.2475 2.57367 14.2286 1.96859 13.6536C1.29491 13.0134 1.76454 11.8797 2.69358 11.9033C3.52802 11.9246 4.02995 10.9856 3.54867 10.3036C3.01283 9.54428 3.69462 8.52388 4.6012 8.72837C5.41547 8.91201 6.09093 8.08895 5.75196 7.32615C5.37453 6.4769 6.24231 5.60912 7.09156 5.98655C7.85436 6.32552 8.67742 5.65006 8.49378 4.83579C8.28929 3.92923 9.30964 3.24744 10.069 3.78328C10.751 4.26455 11.69 3.76263 11.6688 2.92819C11.6451 1.99914 12.7788 1.52952 13.419 2.2032C13.994 2.80828 15.0129 2.49919 15.1548 1.67664C15.3129 0.760822 16.5165 0.521409 17.0129 1.30704C17.4588 2.01266 18.5185 1.9083 18.8182 1.12924Z" fill="#FC3F1D"/>
<path d="M33.2013 20.0656C33.2013 27.5223 27.1565 33.5671 19.6999 33.5671C12.2432 33.5671 6.19835 27.5223 6.19835 20.0656C6.19835 12.6089 12.2432 6.56415 19.6999 6.56415C21.1464 6.56415 22.5399 6.79161 23.8464 7.21281C23.7397 7.54717 23.382 7.72966 23.0431 7.63868C21.977 7.35259 20.8562 7.20001 19.6999 7.20001C12.5944 7.20001 6.83422 12.9601 6.83422 20.0657C6.83422 27.1712 12.5944 32.9313 19.6999 32.9313C26.8053 32.9313 32.5655 27.1712 32.5655 20.0657C32.5655 19.0026 32.4366 17.9698 32.1935 16.9818C32.1097 16.641 32.2996 16.2873 32.6361 16.1876C33.0038 17.4159 33.2013 18.7177 33.2013 20.0656Z" fill="white"/>
<path opacity="0.9" d="M19.7731 12.6977C19.8205 12.6097 19.9476 12.6122 19.9915 12.702L20.0797 12.8822C21.6237 16.0381 24.1171 18.6313 27.2099 20.2978L27.3866 20.393C27.4745 20.4405 27.472 20.5675 27.3823 20.6114L27.202 20.6996C24.0462 22.2436 21.453 24.737 19.7864 27.8298L19.6912 28.0065C19.6438 28.0945 19.5168 28.092 19.4728 28.0022L19.3846 27.8219C17.8407 24.6661 15.3473 22.0729 12.2544 20.4063L12.0778 20.3111C11.9898 20.2637 11.9923 20.1367 12.082 20.0928L12.2623 20.0046C15.4181 18.4606 18.0113 15.9672 19.6779 12.8744L19.7731 12.6977Z" fill="white"/>
<g filter="url(#filter0_d_28_1844)">
<path d="M23.7888 16.1486C23.8801 16.1154 23.9686 16.2039 23.9355 16.2952L22.4746 20.3129C22.4654 20.3382 22.4654 20.3658 22.4746 20.391L23.9355 24.4087C23.9686 24.5 23.8801 24.5885 23.7888 24.5553L19.7712 23.0945C19.7459 23.0853 19.7183 23.0853 19.693 23.0945L15.6753 24.5553C15.584 24.5885 15.4956 24.5 15.5288 24.4087L16.9896 20.391C16.9988 20.3658 16.9988 20.3382 16.9896 20.3129L15.5288 16.2952C15.4956 16.2039 15.584 16.1154 15.6753 16.1486L19.693 17.6095C19.7183 17.6186 19.746 17.6186 19.7712 17.6095L23.7888 16.1486Z" fill="white"/>
</g>
<path d="M32.3027 10.8758C32.3027 9.06318 30.8333 7.59378 29.0207 7.59378C27.2081 7.59378 25.7387 9.06318 25.7387 10.8758C25.7387 12.6884 27.2081 14.1578 29.0207 14.1578C30.8333 14.1578 32.3027 12.6884 32.3027 10.8758Z" fill="white"/>
<path d="M29.5048 9.43202H29.1726C28.6032 9.43202 28.3185 9.71673 28.3185 10.1438C28.3185 10.6183 28.5083 10.8556 28.9353 11.1403L29.2675 11.3775L28.3185 12.8486H27.5592L28.4608 11.5199C27.9388 11.1403 27.6541 10.8081 27.6541 10.1913C27.6541 9.43202 28.1761 8.91006 29.1726 8.91006H30.1691V12.8486H29.5048V9.43202Z" fill="#FC3F1D"/>
</g>
</g>
<defs>
<filter id="filter0_d_28_1844" x="9.61363" y="10.2335" width="20.237" height="20.2369" filterUnits="userSpaceOnUse" color-interpolation-filters="sRGB">
<feFlood flood-opacity="0" result="BackgroundImageFix"/>
<feColorMatrix in="SourceAlpha" type="matrix" values="0 0 0 0 0 0 0 0 0 0 0 0 0 0 0 0 0 0 127 0" result="hardAlpha"/>
<feOffset/>
<feGaussianBlur stdDeviation="2.954"/>
<feColorMatrix type="matrix" values="0 0 0 0 1 0 0 0 0 0 0 0 0 0 0 0 0 0 1 0"/>
<feBlend mode="normal" in2="BackgroundImageFix" result="effect1_dropShadow_28_1844"/>
<feBlend mode="normal" in="SourceGraphic" in2="effect1_dropShadow_28_1844" result="shape"/>
</filter>
<clipPath id="clip0_28_1844">
<rect width="40" height="40" fill="white"/>
</clipPath>
</defs>
</svg>
